<svg width="150" height="150" viewBox="0 0 150 150" fill="none" xmlns="http://www.w3.org/2000/svg">
<rect width="150" height="150" fill="white"/>
<path d="M20.3235 97L27.5678 53.3636H46.4031C49.6417 53.3636 52.3761 53.9531 54.6062 55.1321C56.8363 56.3111 58.4414 58.0085 59.4215 60.2244C60.4016 62.4403 60.636 65.0966 60.1246 68.1932C59.6133 71.3182 58.484 73.9531 56.7369 76.098C55.0039 78.2287 52.7951 79.848 50.1104 80.956C47.44 82.0497 44.4428 82.5966 41.119 82.5966H29.869L31.4031 73.392H40.2667C41.6587 73.392 42.8803 73.2216 43.9315 72.8807C44.9826 72.5256 45.8349 71.9716 46.4883 71.2188C47.1417 70.4517 47.5678 69.4432 47.7667 68.1932C47.9656 66.9432 47.8661 65.9276 47.4684 65.1463C47.0707 64.3509 46.4102 63.7685 45.4869 63.3991C44.5636 63.0156 43.4201 62.8239 42.0565 62.8239H37.8803L32.1701 97H20.3235ZM49.2156 76.9716L56.8008 97H43.9315L36.6019 76.9716H49.2156ZM67.8058 97.6818C66.1438 97.6818 64.7873 97.1065 63.7362 95.956C62.6992 94.7912 62.266 93.3778 62.4364 91.7159C62.6069 90.0966 63.3384 88.7116 64.631 87.5611C65.9379 86.4105 67.4222 85.8352 69.0842 85.8352C70.6609 85.8352 71.9748 86.4105 73.0259 87.5611C74.0913 88.7116 74.5387 90.0966 74.3683 91.7159C74.2546 92.8239 73.864 93.8324 73.1964 94.7415C72.543 95.6364 71.7333 96.3537 70.7674 96.8935C69.8157 97.419 68.8285 97.6818 67.8058 97.6818ZM124.738 53.3636L117.493 97H107.607L95.6751 74.0739H95.4194L91.5842 97H79.7376L86.9819 53.3636H97.0387L108.8 76.2045H109.141L112.891 53.3636H124.738ZM129.915 97.6818C128.253 97.6818 126.897 97.1065 125.846 95.956C124.809 94.7912 124.375 93.3778 124.546 91.7159C124.716 90.0966 125.448 88.7116 126.74 87.5611C128.047 86.4105 129.532 85.8352 131.194 85.8352C132.77 85.8352 134.084 86.4105 135.135 87.5611C136.201 88.7116 136.648 90.0966 136.478 91.7159C136.364 92.8239 135.973 93.8324 135.306 94.7415C134.652 95.6364 133.843 96.3537 132.877 96.8935C131.925 97.419 130.938 97.6818 129.915 97.6818Z" fill="#4F46E5"/>
<path d="M20.3235 97L19.337 96.8362L19.1438 98H20.3235V97ZM27.5678 53.3636V52.3636H26.7202L26.5813 53.1999L27.5678 53.3636ZM59.4215 60.2244L60.3361 59.8199L60.3361 59.8199L59.4215 60.2244ZM60.1246 68.1932L59.138 68.0302L59.1378 68.0317L60.1246 68.1932ZM56.7369 76.098L55.9615 75.4665L55.9611 75.467L56.7369 76.098ZM50.1104 80.956L50.4895 81.8814L50.4919 81.8803L50.1104 80.956ZM29.869 82.5966L28.8826 82.4322L28.6885 83.5966H29.869V82.5966ZM31.4031 73.392V72.392H30.5559L30.4167 73.2276L31.4031 73.392ZM43.9315 72.8807L44.24 73.832L44.2515 73.8281L43.9315 72.8807ZM46.4883 71.2188L47.2435 71.8743L47.2495 71.8672L46.4883 71.2188ZM47.7667 68.1932L46.7791 68.0361L46.7791 68.0361L47.7667 68.1932ZM47.4684 65.1463L46.5739 65.5935L46.5772 65.6L47.4684 65.1463ZM45.4869 63.3991L45.1032 64.3227L45.1155 64.3276L45.4869 63.3991ZM37.8803 62.8239V61.8239H37.0335L36.894 62.6591L37.8803 62.8239ZM32.1701 97V98H33.0169L33.1564 97.1648L32.1701 97ZM49.2156 76.9716L50.1507 76.6174L49.9061 75.9716H49.2156V76.9716ZM56.8008 97V98H58.2488L57.736 96.6458L56.8008 97ZM43.9315 97L42.9924 97.3437L43.2326 98H43.9315V97ZM36.6019 76.9716V75.9716H35.1711L35.6628 77.3153L36.6019 76.9716ZM21.31 97.1638L28.5543 53.5274L26.5813 53.1999L19.337 96.8362L21.31 97.1638ZM27.5678 54.3636H46.4031V52.3636H27.5678V54.3636ZM46.4031 54.3636C49.5237 54.3636 52.0878 54.9319 54.1388 56.0162L55.0736 54.248C52.6643 52.9744 49.7596 52.3636 46.4031 52.3636V54.3636ZM54.1388 56.0162C56.179 57.0947 57.6217 58.6275 58.507 60.6289L60.3361 59.8199C59.2611 57.3895 57.4936 55.5274 55.0736 54.248L54.1388 56.0162ZM58.507 60.6289C59.3881 62.6211 59.6269 65.0697 59.138 68.0303L61.1113 68.3561C61.6451 65.1235 61.4151 62.2596 60.3361 59.8199L58.507 60.6289ZM59.1378 68.0317C58.6505 71.0095 57.5832 73.4757 55.9615 75.4665L57.5122 76.7296C59.3849 74.4306 60.5761 71.6268 61.1115 68.3547L59.1378 68.0317ZM55.9611 75.467C54.3392 77.4612 52.2689 78.9833 49.729 80.0316L50.4919 81.8803C53.3213 80.7127 55.6687 78.9962 57.5127 76.729L55.9611 75.467ZM49.7314 80.0306C47.1981 81.0682 44.3324 81.5966 41.119 81.5966V83.5966C44.5533 83.5966 47.6819 83.0313 50.4895 81.8814L49.7314 80.0306ZM41.119 81.5966H29.869V83.5966H41.119V81.5966ZM30.8554 82.761L32.3894 73.5564L30.4167 73.2276L28.8826 82.4322L30.8554 82.761ZM31.4031 74.392H40.2667V72.392H31.4031V74.392ZM40.2667 74.392C41.7376 74.392 43.0672 74.2123 44.24 73.8319L43.623 71.9295C42.6935 72.2309 41.5799 72.392 40.2667 72.392V74.392ZM44.2515 73.8281C45.4516 73.4227 46.4608 72.7761 47.2435 71.8742L45.7331 70.5633C45.209 71.1671 44.5136 71.6285 43.6114 71.9333L44.2515 73.8281ZM47.2495 71.8672C48.0491 70.9286 48.5339 69.7357 48.7543 68.3503L46.7791 68.0361C46.6018 69.1507 46.2343 69.9748 45.727 70.5703L47.2495 71.8672ZM48.7543 68.3503C48.9722 66.9806 48.8872 65.7291 48.3596 64.6926L46.5772 65.6C46.845 66.126 46.9589 66.9057 46.7791 68.0361L48.7543 68.3503ZM48.3628 64.6991C47.8424 63.6583 46.9801 62.9194 45.8583 62.4707L45.1155 64.3276C45.8402 64.6175 46.2989 65.0434 46.574 65.5935L48.3628 64.6991ZM45.8705 62.4756C44.79 62.0268 43.5068 61.8239 42.0565 61.8239V63.8239C43.3334 63.8239 44.3371 64.0044 45.1033 64.3226L45.8705 62.4756ZM42.0565 61.8239H37.8803V63.8239H42.0565V61.8239ZM36.894 62.6591L31.1838 96.8352L33.1564 97.1648L38.8667 62.9887L36.894 62.6591ZM32.1701 96H20.3235V98H32.1701V96ZM48.2804 77.3258L55.8656 97.3542L57.736 96.6458L50.1507 76.6174L48.2804 77.3258ZM56.8008 96H43.9315V98H56.8008V96ZM44.8706 96.6563L37.541 76.6279L35.6628 77.3153L42.9924 97.3437L44.8706 96.6563ZM36.6019 77.9716H49.2156V75.9716H36.6019V77.9716ZM63.7362 95.956L62.9892 96.6209L62.9979 96.6305L63.7362 95.956ZM62.4364 91.7159L61.4419 91.6112L61.4417 91.6139L62.4364 91.7159ZM64.631 87.5611L63.9702 86.8105L63.9662 86.8141L64.631 87.5611ZM73.0259 87.5611L72.2876 88.2356L72.2922 88.2405L73.0259 87.5611ZM74.3683 91.7159L73.3737 91.6112L73.3735 91.6139L74.3683 91.7159ZM73.1964 94.7415L72.3904 94.1496L72.3888 94.1518L73.1964 94.7415ZM70.7674 96.8935L71.2508 97.7689L71.2552 97.7664L70.7674 96.8935ZM67.8058 96.6818C66.4037 96.6818 65.3224 96.2097 64.4744 95.2815L62.9979 96.6305C64.2522 98.0034 65.8839 98.6818 67.8058 98.6818V96.6818ZM64.4831 95.291C63.6471 94.352 63.2871 93.2231 63.4312 91.8179L61.4417 91.6139C61.2449 93.5326 61.7513 95.2304 62.9892 96.6209L64.4831 95.291ZM63.4309 91.8206C63.5736 90.4654 64.1765 89.3044 65.2959 88.308L63.9662 86.8141C62.5003 88.1189 61.6402 89.7277 61.4419 91.6112L63.4309 91.8206ZM65.2918 88.3116C66.4256 87.3135 67.6779 86.8352 69.0842 86.8352V84.8352C67.1666 84.8352 65.4501 85.5076 63.9702 86.8105L65.2918 88.3116ZM69.0842 86.8352C70.3837 86.8352 71.4285 87.2951 72.2876 88.2356L73.7642 86.8866C72.5211 85.5259 70.938 84.8352 69.0842 84.8352V86.8352ZM72.2922 88.2405C73.1532 89.1704 73.5153 90.2661 73.3737 91.6112L75.3628 91.8206C75.5621 89.9271 75.0293 88.2529 73.7597 86.8817L72.2922 88.2405ZM73.3735 91.6139C73.2783 92.5423 72.954 93.3821 72.3904 94.1496L74.0024 95.3334C74.774 94.2826 75.231 93.1054 75.363 91.8179L73.3735 91.6139ZM72.3888 94.1518C71.8202 94.9305 71.1195 95.5511 70.2796 96.0205L71.2552 97.7664C72.3471 97.1563 73.2658 96.3422 74.004 95.3312L72.3888 94.1518ZM70.284 96.0181C69.4707 96.4672 68.6487 96.6818 67.8058 96.6818V98.6818C69.0082 98.6818 70.1607 98.3708 71.2508 97.7689L70.284 96.0181ZM124.738 53.3636L125.724 53.5274L125.917 52.3636H124.738V53.3636ZM117.493 97V98H118.341L118.48 97.1638L117.493 97ZM107.607 97L106.72 97.4617L107 98H107.607V97ZM95.6751 74.0739L96.5621 73.6122L96.282 73.0739H95.6751V74.0739ZM95.4194 74.0739V73.0739H94.5728L94.4331 73.9089L95.4194 74.0739ZM91.5842 97V98H92.4308L92.5705 97.165L91.5842 97ZM79.7376 97L78.7511 96.8362L78.5579 98H79.7376V97ZM86.9819 53.3636V52.3636H86.1342L85.9954 53.1999L86.9819 53.3636ZM97.0387 53.3636L97.9278 52.9058L97.6486 52.3636H97.0387V53.3636ZM108.8 76.2045L107.911 76.6623L108.19 77.2045H108.8V76.2045ZM109.141 76.2045V77.2045H109.99L110.128 76.3666L109.141 76.2045ZM112.891 53.3636V52.3636H112.042L111.904 53.2016L112.891 53.3636ZM123.751 53.1999L116.507 96.8362L118.48 97.1638L125.724 53.5274L123.751 53.1999ZM117.493 96H107.607V98H117.493V96ZM108.494 96.5383L96.5621 73.6122L94.788 74.5355L106.72 97.4617L108.494 96.5383ZM95.6751 73.0739H95.4194V75.0739H95.6751V73.0739ZM94.4331 73.9089L90.5979 96.835L92.5705 97.165L96.4057 74.2389L94.4331 73.9089ZM91.5842 96H79.7376V98H91.5842V96ZM80.7241 97.1638L87.9684 53.5274L85.9954 53.1999L78.7511 96.8362L80.7241 97.1638ZM86.9819 54.3636H97.0387V52.3636H86.9819V54.3636ZM96.1497 53.8214L107.911 76.6623L109.689 75.7467L97.9278 52.9058L96.1497 53.8214ZM108.8 77.2045H109.141V75.2045H108.8V77.2045ZM110.128 76.3666L113.878 53.5256L111.904 53.2016L108.154 76.0425L110.128 76.3666ZM112.891 54.3636H124.738V52.3636H112.891V54.3636ZM125.846 95.956L125.099 96.6209L125.107 96.6305L125.846 95.956ZM124.546 91.7159L123.551 91.6112L123.551 91.6139L124.546 91.7159ZM126.74 87.5611L126.08 86.8105L126.076 86.8141L126.74 87.5611ZM135.135 87.5611L134.397 88.2356L134.402 88.2405L135.135 87.5611ZM136.478 91.7159L135.483 91.6112L135.483 91.6139L136.478 91.7159ZM135.306 94.7415L134.5 94.1496L134.498 94.1518L135.306 94.7415ZM132.877 96.8935L133.36 97.7689L133.365 97.7664L132.877 96.8935ZM129.915 96.6818C128.513 96.6818 127.432 96.2097 126.584 95.2815L125.107 96.6305C126.362 98.0034 127.993 98.6818 129.915 98.6818V96.6818ZM126.592 95.291C125.756 94.352 125.396 93.2231 125.541 91.8179L123.551 91.6139C123.354 93.5326 123.861 95.2304 125.099 96.6209L126.592 95.291ZM125.54 91.8206C125.683 90.4654 126.286 89.3044 127.405 88.308L126.076 86.8141C124.61 88.1189 123.75 89.7277 123.551 91.6112L125.54 91.8206ZM127.401 88.3116C128.535 87.3135 129.787 86.8352 131.194 86.8352V84.8352C129.276 84.8352 127.56 85.5076 126.08 86.8105L127.401 88.3116ZM131.194 86.8352C132.493 86.8352 133.538 87.2951 134.397 88.2356L135.874 86.8866C134.63 85.5259 133.047 84.8352 131.194 84.8352V86.8352ZM134.402 88.2405C135.263 89.1704 135.625 90.2661 135.483 91.6112L137.472 91.8206C137.671 89.9271 137.139 88.2529 135.869 86.8817L134.402 88.2405ZM135.483 91.6139C135.388 92.5423 135.063 93.3821 134.5 94.1496L136.112 95.3334C136.883 94.2826 137.34 93.1054 137.472 91.8179L135.483 91.6139ZM134.498 94.1518C133.93 94.9305 133.229 95.5511 132.389 96.0205L133.365 97.7664C134.456 97.1563 135.375 96.3422 136.113 95.3312L134.498 94.1518ZM132.393 96.0181C131.58 96.4672 130.758 96.6818 129.915 96.6818V98.6818C131.118 98.6818 132.27 98.3708 133.36 97.7689L132.393 96.0181Z" fill="#4F46E5"/>
</svg>
