<svg width="300" height="300" viewBox="0 0 300 300" fill="none" xmlns="http://www.w3.org/2000/svg">
<rect width="300" height="300" fill="white"/>
<path d="M48.8725 186L60.9464 113.273H92.3384C97.7362 113.273 102.293 114.255 106.01 116.22C109.727 118.185 112.402 121.014 114.036 124.707C115.669 128.401 116.06 132.828 115.208 137.989C114.355 143.197 112.473 147.589 109.561 151.163C106.673 154.714 102.992 157.413 98.5174 159.26C94.0666 161.083 89.0714 161.994 83.5316 161.994H64.7816L67.3384 146.653H82.1112C84.4312 146.653 86.4672 146.369 88.2191 145.801C89.971 145.209 91.3915 144.286 92.4805 143.031C93.5695 141.753 94.2797 140.072 94.6112 137.989C94.9426 135.905 94.7769 134.213 94.114 132.911C93.4511 131.585 92.3503 130.614 90.8114 129.999C89.2726 129.359 87.3668 129.04 85.0941 129.04H78.1339L68.6168 186H48.8725ZM97.0259 152.619L109.668 186H88.2191L76.0032 152.619H97.0259ZM128.01 187.136C125.24 187.136 122.979 186.178 121.227 184.26C119.499 182.319 118.777 179.963 119.061 177.193C119.345 174.494 120.564 172.186 122.718 170.268C124.896 168.351 127.37 167.392 130.14 167.392C132.768 167.392 134.958 168.351 136.71 170.268C138.485 172.186 139.231 174.494 138.947 177.193C138.758 179.04 138.107 180.721 136.994 182.236C135.905 183.727 134.556 184.923 132.946 185.822C131.359 186.698 129.714 187.136 128.01 187.136ZM222.896 113.273L210.822 186H194.345L174.458 147.79H174.032L167.64 186H147.896L159.97 113.273H176.731L196.333 151.341H196.902L203.152 113.273H222.896ZM231.525 187.136C228.755 187.136 226.494 186.178 224.743 184.26C223.014 182.319 222.292 179.963 222.576 177.193C222.86 174.494 224.08 172.186 226.234 170.268C228.412 168.351 230.886 167.392 233.656 167.392C236.284 167.392 238.474 168.351 240.225 170.268C242.001 172.186 242.747 174.494 242.463 177.193C242.273 179.04 241.622 180.721 240.51 182.236C239.421 183.727 238.071 184.923 236.461 185.822C234.875 186.698 233.23 187.136 231.525 187.136Z" fill="#4F46E5"/>
<path d="M48.8725 186L47.886 185.836L47.6928 187H48.8725V186ZM60.9464 113.273V112.273H60.0987L59.9599 113.109L60.9464 113.273ZM114.036 124.707L114.95 124.303L114.95 124.303L114.036 124.707ZM115.208 137.989L114.221 137.826L114.221 137.827L115.208 137.989ZM109.561 151.163L108.786 150.532L108.786 150.532L109.561 151.163ZM98.5174 159.26L98.8964 160.185L98.8989 160.184L98.5174 159.26ZM64.7816 161.994L63.7952 161.83L63.6011 162.994H64.7816V161.994ZM67.3384 146.653V145.653H66.4913L66.352 146.489L67.3384 146.653ZM88.2191 145.801L88.5276 146.752L88.5392 146.749L88.2191 145.801ZM92.4805 143.031L93.2357 143.687L93.2417 143.68L92.4805 143.031ZM94.6112 137.989L93.6236 137.832L93.6236 137.832L94.6112 137.989ZM94.114 132.911L93.2195 133.358L93.2228 133.364L94.114 132.911ZM90.8114 129.999L90.4278 130.922L90.44 130.927L90.8114 129.999ZM78.1339 129.04V128.04H77.2871L77.1476 128.875L78.1339 129.04ZM68.6168 186V187H69.4636L69.6032 186.165L68.6168 186ZM97.0259 152.619L97.9611 152.265L97.7165 151.619H97.0259V152.619ZM109.668 186V187H111.116L110.603 185.646L109.668 186ZM88.2191 186L87.28 186.344L87.5202 187H88.2191V186ZM76.0032 152.619V151.619H74.5724L75.0641 152.963L76.0032 152.619ZM49.859 186.164L61.9329 113.436L59.9599 113.109L47.886 185.836L49.859 186.164ZM60.9464 114.273H92.3384V112.273H60.9464V114.273ZM92.3384 114.273C97.6182 114.273 102.005 115.234 105.543 117.104L106.478 115.336C102.582 113.276 97.8541 112.273 92.3384 112.273V114.273ZM105.543 117.104C109.07 118.969 111.583 121.633 113.121 125.112L114.95 124.303C113.222 120.395 110.384 117.401 106.478 115.336L105.543 117.104ZM113.121 125.112C114.656 128.581 115.051 132.801 114.221 137.826L116.194 138.152C117.069 132.855 116.683 128.22 114.95 124.303L113.121 125.112ZM114.221 137.827C113.393 142.888 111.573 147.111 108.786 150.532L110.337 151.795C113.374 148.066 115.318 143.506 116.195 138.15L114.221 137.827ZM108.786 150.532C106.008 153.947 102.466 156.549 98.1359 158.336L98.8989 160.184C103.518 158.278 107.338 155.482 110.337 151.794L108.786 150.532ZM98.1384 158.335C93.8248 160.101 88.9609 160.994 83.5316 160.994V162.994C89.1818 162.994 94.3085 162.064 98.8964 160.185L98.1384 158.335ZM83.5316 160.994H64.7816V162.994H83.5316V160.994ZM65.768 162.159L68.3248 146.818L66.352 146.489L63.7952 161.83L65.768 162.159ZM67.3384 147.653H82.1112V145.653H67.3384V147.653ZM82.1112 147.653C84.51 147.653 86.6541 147.36 88.5276 146.752L87.9106 144.85C86.2803 145.379 84.3524 145.653 82.1112 145.653V147.653ZM88.5392 146.749C90.44 146.106 92.0174 145.09 93.2357 143.687L91.7253 142.376C90.7656 143.482 89.502 144.312 87.899 144.854L88.5392 146.749ZM93.2417 143.68C94.4769 142.23 95.2458 140.364 95.5987 138.146L93.6236 137.832C93.3137 139.779 92.6621 141.276 91.7192 142.383L93.2417 143.68ZM95.5987 138.146C95.9492 135.943 95.798 134.014 95.0052 132.457L93.2228 133.364C93.7558 134.411 93.936 135.868 93.6236 137.832L95.5987 138.146ZM95.0084 132.463C94.2229 130.892 92.9202 129.765 91.1828 129.07L90.44 130.927C91.7803 131.463 92.6794 132.277 93.2196 133.358L95.0084 132.463ZM91.195 129.075C89.4991 128.371 87.4536 128.04 85.0941 128.04V130.04C87.2801 130.04 89.0462 130.348 90.4278 130.922L91.195 129.075ZM85.0941 128.04H78.1339V130.04H85.0941V128.04ZM77.1476 128.875L67.6305 185.835L69.6032 186.165L79.1202 129.205L77.1476 128.875ZM68.6168 185H48.8725V187H68.6168V185ZM96.0907 152.973L108.733 186.354L110.603 185.646L97.9611 152.265L96.0907 152.973ZM109.668 185H88.2191V187H109.668V185ZM89.1582 185.656L76.9423 152.276L75.0641 152.963L87.28 186.344L89.1582 185.656ZM76.0032 153.619H97.0259V151.619H76.0032V153.619ZM121.227 184.26L120.48 184.925L120.489 184.934L121.227 184.26ZM119.061 177.193L118.066 177.088L118.066 177.091L119.061 177.193ZM122.718 170.268L122.058 169.518L122.054 169.522L122.718 170.268ZM136.71 170.268L135.972 170.943L135.976 170.948L136.71 170.268ZM138.947 177.193L137.953 177.088L137.952 177.091L138.947 177.193ZM136.994 182.236L136.188 181.644L136.186 181.646L136.994 182.236ZM132.946 185.822L133.429 186.698L133.433 186.695L132.946 185.822ZM128.01 186.136C125.5 186.136 123.514 185.281 121.965 183.585L120.489 184.934C122.444 187.074 124.98 188.136 128.01 188.136V186.136ZM121.974 183.595C120.447 181.879 119.798 179.808 120.056 177.295L118.066 177.091C117.756 180.118 118.551 182.758 120.48 184.925L121.974 183.595ZM120.055 177.298C120.312 174.863 121.402 172.779 123.383 171.015L122.054 169.522C119.726 171.593 118.378 174.125 118.066 177.088L120.055 177.298ZM123.379 171.019C125.384 169.254 127.626 168.392 130.14 168.392V166.392C127.115 166.392 124.409 167.448 122.058 169.518L123.379 171.019ZM130.14 168.392C132.491 168.392 134.412 169.235 135.972 170.943L137.448 169.594C135.504 167.466 133.045 166.392 130.14 166.392V168.392ZM135.976 170.948C137.547 172.645 138.208 174.664 137.953 177.088L139.942 177.298C140.255 174.325 139.424 171.727 137.444 169.589L135.976 170.948ZM137.952 177.091C137.781 178.758 137.197 180.27 136.188 181.644L137.8 182.828C139.017 181.171 139.734 179.321 139.942 177.295L137.952 177.091ZM136.186 181.646C135.182 183.021 133.942 184.12 132.458 184.949L133.433 186.695C135.169 185.725 136.628 184.433 137.802 182.825L136.186 181.646ZM132.462 184.947C131.014 185.747 129.534 186.136 128.01 186.136V188.136C129.894 188.136 131.705 187.65 133.429 186.698L132.462 184.947ZM222.896 113.273L223.882 113.436L224.076 112.273H222.896V113.273ZM210.822 186V187H211.67L211.809 186.164L210.822 186ZM194.345 186L193.458 186.462L193.738 187H194.345V186ZM174.458 147.79L175.346 147.328L175.065 146.79H174.458V147.79ZM174.032 147.79V146.79H173.186L173.046 147.625L174.032 147.79ZM167.64 186V187H168.487L168.627 186.165L167.64 186ZM147.896 186L146.909 185.836L146.716 187H147.896V186ZM159.97 113.273V112.273H159.122L158.983 113.109L159.97 113.273ZM176.731 113.273L177.62 112.815L177.341 112.273H176.731V113.273ZM196.333 151.341L195.444 151.799L195.724 152.341H196.333V151.341ZM196.902 151.341V152.341H197.751L197.888 151.503L196.902 151.341ZM203.152 113.273V112.273H202.302L202.165 113.111L203.152 113.273ZM221.909 113.109L209.836 185.836L211.809 186.164L223.882 113.436L221.909 113.109ZM210.822 185H194.345V187H210.822V185ZM195.232 185.538L175.346 147.328L173.571 148.251L193.458 186.462L195.232 185.538ZM174.458 146.79H174.032V148.79H174.458V146.79ZM173.046 147.625L166.654 185.835L168.627 186.165L175.019 147.955L173.046 147.625ZM167.64 185H147.896V187H167.64V185ZM148.882 186.164L160.956 113.436L158.983 113.109L146.909 185.836L148.882 186.164ZM159.97 114.273H176.731V112.273H159.97V114.273ZM175.842 113.731L195.444 151.799L197.223 150.883L177.62 112.815L175.842 113.731ZM196.333 152.341H196.902V150.341H196.333V152.341ZM197.888 151.503L204.138 113.435L202.165 113.111L195.915 151.179L197.888 151.503ZM203.152 114.273H222.896V112.273H203.152V114.273ZM224.743 184.26L223.996 184.925L224.004 184.934L224.743 184.26ZM222.576 177.193L221.582 177.088L221.582 177.091L222.576 177.193ZM226.234 170.268L225.573 169.518L225.569 169.522L226.234 170.268ZM240.225 170.268L239.487 170.943L239.492 170.948L240.225 170.268ZM242.463 177.193L241.468 177.088L241.468 177.091L242.463 177.193ZM240.51 182.236L239.704 181.644L239.702 181.646L240.51 182.236ZM236.461 185.822L236.945 186.698L236.949 186.695L236.461 185.822ZM231.525 186.136C229.015 186.136 227.03 185.281 225.481 183.585L224.004 184.934C225.959 187.074 228.495 188.136 231.525 188.136V186.136ZM225.489 183.595C223.962 181.879 223.313 179.808 223.571 177.295L221.582 177.091C221.271 180.118 222.066 182.758 223.996 184.925L225.489 183.595ZM223.571 177.298C223.827 174.863 224.918 172.779 226.899 171.015L225.569 169.522C223.242 171.593 221.894 174.125 221.582 177.088L223.571 177.298ZM226.895 171.019C228.9 169.254 231.142 168.392 233.656 168.392V166.392C230.63 166.392 227.924 167.448 225.573 169.518L226.895 171.019ZM233.656 168.392C236.007 168.392 237.927 169.235 239.487 170.943L240.964 169.594C239.02 167.466 236.561 166.392 233.656 166.392V168.392ZM239.492 170.948C241.063 172.645 241.723 174.664 241.468 177.088L243.457 177.298C243.77 174.325 242.939 171.727 240.959 169.589L239.492 170.948ZM241.468 177.091C241.297 178.758 240.712 180.27 239.704 181.644L241.316 182.828C242.532 181.171 243.25 179.321 243.457 177.295L241.468 177.091ZM239.702 181.646C238.698 183.021 237.457 184.12 235.973 184.949L236.949 186.695C238.685 185.725 240.143 184.433 241.317 182.825L239.702 181.646ZM235.978 184.947C234.53 185.747 233.05 186.136 231.525 186.136V188.136C233.41 188.136 235.22 187.65 236.945 186.698L235.978 184.947Z" fill="#4F46E5"/>
</svg>
